<mxfile host="Electron" modified="2023-10-03T17:38:30.509Z" agent="Mozilla/5.0 (Macintosh; Intel Mac OS X 10_15_7) AppleWebKit/537.36 (KHTML, like Gecko) draw.io/21.6.8 Chrome/114.0.5735.289 Electron/25.5.0 Safari/537.36" etag="zpwX_wS32S7zBQNpwQfs" version="21.6.8" type="device">
  <diagram name="Page-1" id="rh3G6_-PAPEWU3ZlsqPR">
    <mxGraphModel dx="-2446" dy="1774" grid="1" gridSize="10" guides="1" tooltips="1" connect="1" arrows="1" fold="1" page="1" pageScale="1" pageWidth="850" pageHeight="1100" math="1" shadow="0">
      <root>
        <mxCell id="0" />
        <mxCell id="1" parent="0" />
        <mxCell id="vTeC7MxBw6ICrQF9Bca6-1" value="" style="ellipse;whiteSpace=wrap;html=1;strokeColor=#000000;" parent="1" vertex="1">
          <mxGeometry x="4230" y="-56" width="625" height="590" as="geometry" />
        </mxCell>
        <mxCell id="vTeC7MxBw6ICrQF9Bca6-18" value="&lt;font style=&quot;font-size: 14px;&quot;&gt;$$F_{collect_{heat}}$$&lt;/font&gt;" style="ellipse;whiteSpace=wrap;html=1;aspect=fixed;fillColor=#A9C4EB;" parent="1" vertex="1">
          <mxGeometry x="4370" y="100" width="80" height="80" as="geometry" />
        </mxCell>
        <mxCell id="vTeC7MxBw6ICrQF9Bca6-20" value="&lt;font style=&quot;font-size: 14px;&quot;&gt;$$V_{damage}$$&lt;/font&gt;" style="ellipse;whiteSpace=wrap;html=1;aspect=fixed;fillColor=#FFFFFF;strokeColor=#080505;strokeWidth=1;" parent="1" vertex="1">
          <mxGeometry x="4380" y="310" width="80" height="80" as="geometry" />
        </mxCell>
        <mxCell id="vTeC7MxBw6ICrQF9Bca6-21" value="&lt;font style=&quot;font-size: 10px;&quot;&gt;Dust&lt;/font&gt;" style="ellipse;whiteSpace=wrap;html=1;aspect=fixed;fillColor=#FFFFFF;strokeColor=#F19C99;strokeWidth=2;dashed=1;dashPattern=8 8;" parent="1" vertex="1">
          <mxGeometry x="4420" y="-20" width="50" height="50" as="geometry" />
        </mxCell>
        <mxCell id="vTeC7MxBw6ICrQF9Bca6-22" value="&lt;font style=&quot;font-size: 10px;&quot;&gt;Meteorite Impact&lt;/font&gt;" style="ellipse;whiteSpace=wrap;html=1;aspect=fixed;fillColor=#FFFFFF;strokeColor=#F19C99;strokeWidth=2;dashed=1;dashPattern=8 8;" parent="1" vertex="1">
          <mxGeometry x="4310" y="355" width="50" height="50" as="geometry" />
        </mxCell>
        <mxCell id="vTeC7MxBw6ICrQF9Bca6-23" value="&lt;font style=&quot;font-size: 14px;&quot;&gt;Aging&lt;/font&gt;" style="ellipse;whiteSpace=wrap;html=1;aspect=fixed;fillColor=#FFFFFF;strokeColor=#F19C99;strokeWidth=2;dashed=1;dashPattern=8 8;" parent="1" vertex="1">
          <mxGeometry x="4380" y="405" width="50" height="50" as="geometry" />
        </mxCell>
        <mxCell id="vTeC7MxBw6ICrQF9Bca6-24" value="&lt;font style=&quot;font-size: 10px;&quot;&gt;Human Action&amp;nbsp;&lt;/font&gt;" style="ellipse;whiteSpace=wrap;html=1;aspect=fixed;fillColor=#FFFFFF;strokeColor=#F19C99;strokeWidth=2;dashed=1;dashPattern=8 8;" parent="1" vertex="1">
          <mxGeometry x="4550" y="460" width="50" height="50" as="geometry" />
        </mxCell>
        <mxCell id="vTeC7MxBw6ICrQF9Bca6-30" value="&lt;font style=&quot;font-size: 14px;&quot;&gt;$$V_{clog}$$&lt;/font&gt;" style="ellipse;whiteSpace=wrap;html=1;aspect=fixed;fillColor=#FFFFFF;strokeColor=#080505;strokeWidth=1;" parent="1" vertex="1">
          <mxGeometry x="4470" y="30" width="80" height="80" as="geometry" />
        </mxCell>
        <mxCell id="vTeC7MxBw6ICrQF9Bca6-31" value="" style="shape=flexArrow;endArrow=classic;html=1;rounded=0;fillColor=#000000;width=0.3225806451612903;endSize=1.064804469273743;endWidth=2.980717246350694;" parent="1" source="yWxi-8YTKczctsRbZgCD-3" target="yWxi-8YTKczctsRbZgCD-4" edge="1">
          <mxGeometry width="50" height="50" relative="1" as="geometry">
            <mxPoint x="4530" y="239.5" as="sourcePoint" />
            <mxPoint x="4570" y="239.5" as="targetPoint" />
          </mxGeometry>
        </mxCell>
        <mxCell id="vTeC7MxBw6ICrQF9Bca6-33" value="" style="shape=flexArrow;endArrow=classic;html=1;rounded=0;width=0.3225806451612903;endSize=1.064804469273743;endWidth=2.980717246350694;strokeColor=#F19C99;" parent="1" source="vTeC7MxBw6ICrQF9Bca6-23" target="vTeC7MxBw6ICrQF9Bca6-20" edge="1">
          <mxGeometry width="50" height="50" relative="1" as="geometry">
            <mxPoint x="4402" y="-15" as="sourcePoint" />
            <mxPoint x="4350" y="-10" as="targetPoint" />
          </mxGeometry>
        </mxCell>
        <mxCell id="vTeC7MxBw6ICrQF9Bca6-34" value="&lt;font style=&quot;font-size: 10px;&quot;&gt;Incorrect maintenance procedure&lt;/font&gt;" style="ellipse;whiteSpace=wrap;html=1;aspect=fixed;fillColor=#FFFFFF;strokeColor=#F19C99;strokeWidth=2;dashed=1;dashPattern=8 8;" parent="1" vertex="1">
          <mxGeometry x="4470" y="375" width="50" height="50" as="geometry" />
        </mxCell>
        <mxCell id="vTeC7MxBw6ICrQF9Bca6-38" value="" style="shape=flexArrow;endArrow=classic;html=1;rounded=0;width=0.3225806451612903;endSize=1.064804469273743;endWidth=2.980717246350694;strokeColor=#F19C99;" parent="1" source="vTeC7MxBw6ICrQF9Bca6-21" target="vTeC7MxBw6ICrQF9Bca6-30" edge="1">
          <mxGeometry width="50" height="50" relative="1" as="geometry">
            <mxPoint x="4157" y="-142" as="sourcePoint" />
            <mxPoint x="4088" y="-93" as="targetPoint" />
          </mxGeometry>
        </mxCell>
        <mxCell id="vTeC7MxBw6ICrQF9Bca6-43" value="" style="shape=flexArrow;endArrow=classic;html=1;rounded=0;width=0.3225806451612903;endSize=1.064804469273743;endWidth=2.980717246350694;strokeColor=#F19C99;" parent="1" source="vTeC7MxBw6ICrQF9Bca6-34" target="vTeC7MxBw6ICrQF9Bca6-20" edge="1">
          <mxGeometry width="50" height="50" relative="1" as="geometry">
            <mxPoint x="4225" y="625" as="sourcePoint" />
            <mxPoint x="4068" y="558" as="targetPoint" />
          </mxGeometry>
        </mxCell>
        <mxCell id="vTeC7MxBw6ICrQF9Bca6-44" value="" style="shape=flexArrow;endArrow=classic;html=1;rounded=0;width=0.3225806451612903;endSize=1.064804469273743;endWidth=2.980717246350694;strokeColor=#F19C99;" parent="1" source="vTeC7MxBw6ICrQF9Bca6-24" target="vTeC7MxBw6ICrQF9Bca6-37" edge="1">
          <mxGeometry width="50" height="50" relative="1" as="geometry">
            <mxPoint x="4370" y="665" as="sourcePoint" />
            <mxPoint x="4235" y="635" as="targetPoint" />
          </mxGeometry>
        </mxCell>
        <mxCell id="vTeC7MxBw6ICrQF9Bca6-46" value="" style="shape=flexArrow;endArrow=classic;html=1;rounded=0;width=0.3225806451612903;endSize=1.064804469273743;endWidth=2.980717246350694;strokeColor=#F19C99;" parent="1" source="vTeC7MxBw6ICrQF9Bca6-37" target="vTeC7MxBw6ICrQF9Bca6-34" edge="1">
          <mxGeometry width="50" height="50" relative="1" as="geometry">
            <mxPoint x="4360" y="730" as="sourcePoint" />
            <mxPoint x="4380" y="745" as="targetPoint" />
          </mxGeometry>
        </mxCell>
        <mxCell id="vTeC7MxBw6ICrQF9Bca6-48" value="&lt;div style=&quot;text-align: center;&quot;&gt;&lt;font style=&quot;font-size: 48px;&quot;&gt;Cold Plates&lt;/font&gt;&lt;/div&gt;" style="text;whiteSpace=wrap;html=1;fillColor=none;" parent="1" vertex="1">
          <mxGeometry x="4130" y="180" width="150" height="40" as="geometry" />
        </mxCell>
        <mxCell id="NYQ7uX_KgyDwKrisCEyU-1" value="" style="shape=flexArrow;endArrow=classic;html=1;rounded=0;width=0.3225806451612903;endSize=1.064804469273743;endWidth=2.980717246350694;strokeColor=#F19C99;" parent="1" source="vTeC7MxBw6ICrQF9Bca6-22" target="vTeC7MxBw6ICrQF9Bca6-20" edge="1">
          <mxGeometry width="50" height="50" relative="1" as="geometry">
            <mxPoint x="4003" y="611" as="sourcePoint" />
            <mxPoint x="4017" y="568" as="targetPoint" />
          </mxGeometry>
        </mxCell>
        <mxCell id="vTeC7MxBw6ICrQF9Bca6-25" value="&lt;font style=&quot;font-size: 10px;&quot;&gt;Robot Action&amp;nbsp;&lt;/font&gt;" style="ellipse;whiteSpace=wrap;html=1;aspect=fixed;fillColor=#FFFFFF;strokeColor=#F19C99;strokeWidth=2;dashed=1;dashPattern=8 8;" parent="1" vertex="1">
          <mxGeometry x="4450" y="465" width="50" height="50" as="geometry" />
        </mxCell>
        <mxCell id="vTeC7MxBw6ICrQF9Bca6-37" value="" style="ellipse;whiteSpace=wrap;html=1;aspect=fixed;fillColor=#000000;strokeColor=#000000;" parent="1" vertex="1">
          <mxGeometry x="4520" y="455" width="10" height="10" as="geometry" />
        </mxCell>
        <mxCell id="NYQ7uX_KgyDwKrisCEyU-4" value="" style="shape=flexArrow;endArrow=classic;html=1;rounded=0;width=0.3225806451612903;endSize=1.064804469273743;endWidth=2.980717246350694;strokeColor=#F19C99;" parent="1" source="vTeC7MxBw6ICrQF9Bca6-25" target="vTeC7MxBw6ICrQF9Bca6-37" edge="1">
          <mxGeometry width="50" height="50" relative="1" as="geometry">
            <mxPoint x="4310" y="592.77" as="sourcePoint" />
            <mxPoint x="4570" y="335" as="targetPoint" />
          </mxGeometry>
        </mxCell>
        <mxCell id="yWxi-8YTKczctsRbZgCD-3" value="&lt;font style=&quot;font-size: 14px;&quot;&gt;$$H_{plumbing\_ext}$$&lt;/font&gt;" style="ellipse;whiteSpace=wrap;html=1;aspect=fixed;fillColor=#CCCCCC;strokeColor=#666666;strokeWidth=1;fontColor=#333333;" parent="1" vertex="1">
          <mxGeometry x="4610" y="135" width="80" height="80" as="geometry" />
        </mxCell>
        <mxCell id="yWxi-8YTKczctsRbZgCD-4" value="&lt;font style=&quot;font-size: 14px;&quot;&gt;$$F_{transfer_{heat}}$$&lt;/font&gt;" style="ellipse;whiteSpace=wrap;html=1;aspect=fixed;fillColor=#A9C4EB;" parent="1" vertex="1">
          <mxGeometry x="4715" y="45" width="80" height="80" as="geometry" />
        </mxCell>
        <mxCell id="yWxi-8YTKczctsRbZgCD-12" value="&lt;font style=&quot;font-size: 10px;&quot;&gt;Foreign Contaminants&lt;/font&gt;" style="ellipse;whiteSpace=wrap;html=1;aspect=fixed;fillColor=#FFFFFF;strokeColor=#F19C99;strokeWidth=2;dashed=1;dashPattern=8 8;" parent="1" vertex="1">
          <mxGeometry x="4550" y="-20" width="50" height="50" as="geometry" />
        </mxCell>
        <mxCell id="yWxi-8YTKczctsRbZgCD-13" value="" style="shape=flexArrow;endArrow=classic;html=1;rounded=0;width=0.3225806451612903;endSize=1.064804469273743;endWidth=2.980717246350694;strokeColor=#F19C99;" parent="1" source="yWxi-8YTKczctsRbZgCD-12" target="vTeC7MxBw6ICrQF9Bca6-30" edge="1">
          <mxGeometry width="50" height="50" relative="1" as="geometry">
            <mxPoint x="4377" y="27" as="sourcePoint" />
            <mxPoint x="4405" y="41" as="targetPoint" />
          </mxGeometry>
        </mxCell>
        <mxCell id="yWxi-8YTKczctsRbZgCD-15" value="" style="shape=flexArrow;endArrow=classic;html=1;rounded=0;fillColor=#000000;width=0.3225806451612903;endSize=1.064804469273743;endWidth=2.980717246350694;" parent="1" source="vTeC7MxBw6ICrQF9Bca6-30" target="yWxi-8YTKczctsRbZgCD-3" edge="1">
          <mxGeometry width="50" height="50" relative="1" as="geometry">
            <mxPoint x="4425" y="192" as="sourcePoint" />
            <mxPoint x="4542.4806448722475" y="125.68110549528092" as="targetPoint" />
            <Array as="points" />
          </mxGeometry>
        </mxCell>
        <mxCell id="yWxi-8YTKczctsRbZgCD-20" value="&lt;font style=&quot;font-size: 14px;&quot;&gt;$$F_{transmit_{heat}}$$&lt;/font&gt;" style="ellipse;whiteSpace=wrap;html=1;aspect=fixed;fillColor=#A9C4EB;" parent="1" vertex="1">
          <mxGeometry x="4590" y="260" width="80" height="80" as="geometry" />
        </mxCell>
        <mxCell id="yWxi-8YTKczctsRbZgCD-26" value="" style="shape=flexArrow;endArrow=classic;html=1;rounded=0;fillColor=#000000;width=0.3225806451612903;endSize=1.064804469273743;endWidth=2.980717246350694;" parent="1" source="vTeC7MxBw6ICrQF9Bca6-20" target="yWxi-8YTKczctsRbZgCD-27" edge="1">
          <mxGeometry width="50" height="50" relative="1" as="geometry">
            <mxPoint x="4468" y="228" as="sourcePoint" />
            <mxPoint x="4516" y="268" as="targetPoint" />
          </mxGeometry>
        </mxCell>
        <mxCell id="yWxi-8YTKczctsRbZgCD-27" value="&lt;font style=&quot;font-size: 14px;&quot;&gt;$$H_{hardware}$$&lt;/font&gt;" style="ellipse;whiteSpace=wrap;html=1;aspect=fixed;fillColor=#CCCCCC;strokeColor=#666666;strokeWidth=1;fontColor=#333333;" parent="1" vertex="1">
          <mxGeometry x="4450" y="230" width="80" height="80" as="geometry" />
        </mxCell>
        <mxCell id="yWxi-8YTKczctsRbZgCD-31" value="" style="shape=flexArrow;endArrow=classic;html=1;rounded=0;fillColor=#000000;width=0.3225806451612903;endSize=1.064804469273743;endWidth=2.980717246350694;" parent="1" source="yWxi-8YTKczctsRbZgCD-27" target="vTeC7MxBw6ICrQF9Bca6-18" edge="1">
          <mxGeometry width="50" height="50" relative="1" as="geometry">
            <mxPoint x="4402" y="332" as="sourcePoint" />
            <mxPoint x="4449.154085227223" y="195.11582291657555" as="targetPoint" />
          </mxGeometry>
        </mxCell>
        <mxCell id="yWxi-8YTKczctsRbZgCD-32" value="" style="shape=flexArrow;endArrow=classic;html=1;rounded=0;fillColor=#000000;width=0.3225806451612903;endSize=1.064804469273743;endWidth=2.980717246350694;" parent="1" source="yWxi-8YTKczctsRbZgCD-27" target="yWxi-8YTKczctsRbZgCD-3" edge="1">
          <mxGeometry width="50" height="50" relative="1" as="geometry">
            <mxPoint x="4398" y="242" as="sourcePoint" />
            <mxPoint x="4421" y="210" as="targetPoint" />
          </mxGeometry>
        </mxCell>
        <mxCell id="z4dMTvx9fYQ6WOtPv3iy-3" value="" style="shape=flexArrow;endArrow=classic;html=1;rounded=0;fillColor=#000000;width=0.3225806451612903;endSize=1.064804469273743;endWidth=2.980717246350694;" parent="1" source="yWxi-8YTKczctsRbZgCD-27" target="yWxi-8YTKczctsRbZgCD-20" edge="1">
          <mxGeometry width="50" height="50" relative="1" as="geometry">
            <mxPoint x="4534" y="260" as="sourcePoint" />
            <mxPoint x="4626" y="205" as="targetPoint" />
          </mxGeometry>
        </mxCell>
        <mxCell id="yoJWhxcTIOH4Hyd5LuTS-1" value="" style="rounded=0;whiteSpace=wrap;html=1;" vertex="1" parent="1">
          <mxGeometry x="4010" y="10" width="120" height="60" as="geometry" />
        </mxCell>
        <mxCell id="yoJWhxcTIOH4Hyd5LuTS-2" value="" style="curved=1;endArrow=classic;html=1;rounded=0;" edge="1" parent="1">
          <mxGeometry width="50" height="50" relative="1" as="geometry">
            <mxPoint x="3990" y="110" as="sourcePoint" />
            <mxPoint x="4130" y="-30" as="targetPoint" />
            <Array as="points">
              <mxPoint x="4090" y="70" />
              <mxPoint x="4040" y="20" />
            </Array>
          </mxGeometry>
        </mxCell>
      </root>
    </mxGraphModel>
  </diagram>
</mxfile>
